<?xml version="1.0" encoding="UTF-8" standalone="no"?>
<!-- Created with Inkscape (http://www.inkscape.org/) -->

<svg
   width="1000"
   height="1000"
   viewBox="0 0 10 10"
   version="1.1"
   id="svg1"
   inkscape:version="1.3.2 (091e20e, 2023-11-25, custom)"
   sodipodi:docname="logo_white.svg"
   xmlns:inkscape="http://www.inkscape.org/namespaces/inkscape"
   xmlns:sodipodi="http://sodipodi.sourceforge.net/DTD/sodipodi-0.dtd"
   xmlns="http://www.w3.org/2000/svg"
   xmlns:svg="http://www.w3.org/2000/svg">
  <sodipodi:namedview
     id="namedview1"
     pagecolor="#ffffff"
     bordercolor="#000000"
     borderopacity="0.25"
     inkscape:showpageshadow="2"
     inkscape:pageopacity="0.0"
     inkscape:pagecheckerboard="0"
     inkscape:deskcolor="#d1d1d1"
     inkscape:document-units="mm"
     inkscape:zoom="0.69219276"
     inkscape:cx="333.72207"
     inkscape:cy="464.466"
     inkscape:window-width="1920"
     inkscape:window-height="991"
     inkscape:window-x="-9"
     inkscape:window-y="-9"
     inkscape:window-maximized="1"
     inkscape:current-layer="svg1" />
  <defs
     id="defs1" />
  <g
     id="g2"
     style="display:none"
     transform="translate(0.00253994,0.14413863)">
    <g
       id="Calque_2"
       transform="matrix(0.02364965,0,0,0.02364965,-21.794209,-0.1181846)">
      <path
         class="st3"
         d="m 1234.5,280 c 1,0.9 2,1.9 3,2.9 3.4,3.4 13.1,10.8 15.3,-16 0,0 -6.9,2 -7.1,16.3 0,0 -4.3,-15.7 1.3,-22.7 0,0 -16.9,4.5 -19.9,3.5 0,0 15.9,-5.9 15.6,-13.5 -0.1,-1.8 0,-5.5 0.5,-7.3 2.4,-8.5 13.6,-28.8 58.9,-31.2 0,0 -16.3,10.9 -19.8,20.6 -1.3,3.5 -2.7,6.9 -4.6,10.2 -5.8,10.4 -14.9,31.1 -2.1,41.7 18.7,15.5 -12.6,44.5 -12.6,44.5 0,0 -37.7598,55.47934 -119.8598,59.57934 -82,4 -136.5,-55 -136.5,-55 0,0 -60.6402,-61.67934 -37.9402,-165.37934 22.7,-103.7 109.5932,-131.2121 109.5932,-131.2121 0,0 47.7252,-19.724665 72.7252,18.275335 -26.5711,-3.890503 -37.3193,1.055071 -50.7387,5.366917 0,0 20.5071,0.09421 22.8071,7.994211 0,0 -22.6648,-6.700532 -87.5312,21.752171 0,0 35.8249,-6.722392 49.6805,11.656856 0,0 -55.2444,-18.320555 -95.3361,63.96661 0,0 4.3888,3.9 33.1888,-7 0,0 -73.9888,48.4 -9.7888,139.4 0,0 5.9,-19.4 17.7,-48.4 0,0 -20.8,97.6 86.9,101.1 0,0 -17.5,-25.7 -21.9,-38.1 0,0 58.4,72.8 113.4,-4.4 0,0 -21.5,6.2 -36.4,-3.6 0,0 15,0.3 30.3,-17.1 0,0 -41.6,20.1 -72.3,-18.9 0,0 11.6,11.6 38.5,-2.4 0,0 -62.2,3.1 -80.5,-36.6 0,0 17.1,20.6 64.3,9 0,0 33.8,-11.6 -47,-34.1 0,0 -47.9,-27.3 -60.3,-63 0,0 21.7,35.8 81.1,45.6 59.4,9.9 60.7276,38.67588 64.8,45 0,0 8.7537,17.18046 18.2193,26.64602 10.8747,10.56253 16.8848,13.34173 24.3807,20.85398 z"
         id="path4"
         sodipodi:nodetypes="cscccccccccccccsccccccccccccccccccccccccc"
         style="clip-rule:evenodd;fill:#405bab;fill-opacity:1;fill-rule:evenodd" />
      <path
         class="st4"
         d="m 1257,233 10,-7 c 0,0 9,6 -10,7 z"
         id="path5"
         style="clip-rule:evenodd;fill:#ff914d;fill-opacity:1;fill-rule:evenodd" />
    </g>
    <g
       inkscape:label="Calque 1"
       inkscape:groupmode="layer"
       id="layer1">
      <circle
         style="fill:none;stroke:#000000;stroke-width:0.0245358;stroke-linecap:round"
         id="path1"
         cx="5"
         cy="5"
         r="3.9877322" />
    </g>
  </g>
  <path
     d="M 5.3022852,1.1689648 C 5.2025627,1.1610203 5.1025766,1.1568311 5.0025391,1.1564062 2.8001737,1.156405 1.0148035,2.9417752 1.0148047,5.1441406 1.0148035,7.346506 2.8001737,9.1318762 5.0025391,9.131875 6.4740312,9.1277166 7.8236495,8.3135341 8.5135547,7.0137891 8.5381071,6.9688125 8.4672007,6.8300204 8.3758203,6.7542773 8.0731051,6.5035913 8.2908743,6.0268114 8.4408115,5.7834091 8.4857458,5.7053654 8.5035328,5.6096292 8.5342773,5.5268555 8.6121257,5.3111044 8.9470358,5.0780169 8.9878906,5.0501172 8.9878161,5.0470372 8.987738,5.0439572 8.9876563,5.0408772 7.9293095,5.1014372 7.6660538,5.5775128 7.6095703,5.7775586 7.5977453,5.8201276 7.5953893,5.907626 7.5977543,5.9501953 7.6048443,6.1299325 7.228809,6.2694531 7.228809,6.2694531 7.299758,6.2931031 7.6994535,6.1866801 7.6994535,6.1866801 7.5670152,6.3522271 7.6686914,6.7235352 7.6686914,6.7235352 7.6734213,6.3853455 7.8366211,6.3380469 7.8366211,6.3380469 7.7176143,7.2383803 6.8261686,6.0370478 6.7072266,5.834668 6.2219551,4.9129998 6.0288846,4.4952274 4.9438477,4.2602539 3.5390599,4.0284876 2.9969657,3.268517 2.9969657,3.268517 3.7204922,5.2107749 5.8927121,5.2052184 5.3634766,5.3582227 4.2472142,5.6325583 3.842793,5.1453711 3.842793,5.1453711 4.2755811,6.0842613 5.7466016,6.010957 5.7466016,6.010957 5.1104266,6.3420518 4.8360937,6.0677148 4.8360937,6.0677148 5.5621373,6.9900503 6.545957,6.5146875 6.545957,6.5146875 6.1841177,6.926191 5.829375,6.9191016 5.829375,6.9191016 6.1817544,7.1508679 6.6902148,7.0042383 6.6902148,7.0042383 5.3894854,8.8299894 4.0083398,7.1083008 4.0083398,7.1083008 4.0511054,7.6978045 4.7473974,8.3149086 4.7473974,8.3149086 2.2003327,8.2321349 2.5477728,5.9528062 2.5477728,5.9528062 2.2687072,6.6386453 2.1725195,7.0830078 2.1725195,7.0830078 0.65421352,4.9308918 2.4040234,3.78625 2.4040234,3.78625 1.7229142,4.0440309 1.6191211,3.9517969 1.6191211,3.9517969 2.5672748,2.0057362 3.8737891,2.4390039 3.8737891,2.4390039 3.5461093,2.0043416 2.6988672,2.1633203 2.6988672,2.1633203 4.2329333,1.4904245 4.7689453,1.6488867 4.7689453,1.6488867 4.7145512,1.4620546 4.2295703,1.4598437 4.2295703,1.4598437 4.6535432,1.2377441 4.9447136,1.2659244 5.3022852,1.1689648 Z m 2.8701562,4.2018164 c 0,0 0.212839,0.1418973 -0.2365039,0.1655469 z"
     style="fill:#ffffff;fill-opacity:1;stroke:none;stroke-width:0.0245358;stroke-linecap:round;stroke-opacity:1"
     id="path2"
     sodipodi:nodetypes="cccccccccccccccccccccccccccccccccccccccc" />
</svg>
